<svg xmlns="http://www.w3.org/2000/svg" width="39.713" height="39.714" viewBox="0 0 39.713 39.714"><defs><style>.a{fill:#4d8dff;}</style></defs><path class="a" d="M1.442,1.908,9.508.047a1.874,1.874,0,0,1,2.133,1.078l3.723,8.687a1.857,1.857,0,0,1-.535,2.172l-4.7,3.847A28.746,28.746,0,0,0,23.873,29.575l3.847-4.7a1.859,1.859,0,0,1,2.172-.535l8.687,3.723A1.884,1.884,0,0,1,39.664,30.2L37.8,38.27a1.861,1.861,0,0,1-1.815,1.443A35.985,35.985,0,0,1,0,3.723,1.859,1.859,0,0,1,1.442,1.908Z" transform="translate(0.001 0.001)"/></svg>