<svg xmlns="http://www.w3.org/2000/svg" width="69" height="69" viewBox="0 0 69 69"><defs><style>.a{fill:#4d8dff;}.b,.c{fill:#fff;}.c{font-size:10px;font-family:Rubik-Medium, Rubik;font-weight:500;}</style></defs><g transform="translate(-537 -2244)"><rect class="a" width="69" height="69" rx="8" transform="translate(537 2244)"/><g transform="translate(547 2258)"><path class="b" d="M47.6,0H.807A.807.807,0,0,0,0,.807V39.535a.807.807,0,0,0,.807.807H47.6a.807.807,0,0,0,.807-.807V.807A.807.807,0,0,0,47.6,0ZM1.614,1.614H6.455V6.455H1.614ZM46.8,38.729H1.614V8.068H43.57a.807.807,0,1,0,0-1.614H8.068V1.614H46.8Zm0,0"/><path class="b" d="M433.614,32.807a.807.807,0,1,1-.807-.807A.807.807,0,0,1,433.614,32.807Zm0,0" transform="translate(-388.43 -28.773)"/><path class="b" d="M401.614,32.807a.807.807,0,1,1-.807-.807A.807.807,0,0,1,401.614,32.807Zm0,0" transform="translate(-359.658 -28.773)"/><path class="b" d="M369.614,32.807a.807.807,0,1,1-.807-.807A.807.807,0,0,1,369.614,32.807Zm0,0" transform="translate(-330.885 -28.773)"/><path class="b" d="M272.807,33.614h5.648a.807.807,0,0,0,0-1.614h-5.648a.807.807,0,1,0,0,1.614Zm0,0" transform="translate(-244.567 -28.773)"/><path class="b" d="M104.807,33.614h13.716a.807.807,0,0,0,0-1.614H104.807a.807.807,0,1,0,0,1.614Zm0,0" transform="translate(-93.511 -28.773)"/><path class="b" d="M368.068,273.614a.807.807,0,1,0,0-1.614h-7.262a.807.807,0,0,0-.807.807v3.227a.807.807,0,0,0,.807.807h7.262a.807.807,0,1,0,0-1.614h-6.455v-1.614Zm0,0" transform="translate(-323.692 -244.567)"/><path class="b" d="M364.841,336h-4.034a.807.807,0,0,0,0,1.614h4.034a.807.807,0,1,0,0-1.614Zm0,0" transform="translate(-323.692 -302.112)"/><path class="b" d="M38.455,280H32.807a.807.807,0,0,0,0,1.614h5.648a.807.807,0,0,0,0-1.614Zm0,0" transform="translate(-28.773 -251.76)"/><path class="b" d="M36.034,320H32.807a.807.807,0,0,0,0,1.614h3.227a.807.807,0,0,0,0-1.614Zm0,0" transform="translate(-28.773 -287.726)"/><path class="b" d="M376.807,113.614h4.841a.807.807,0,1,0,0-1.614h-4.841a.807.807,0,1,0,0,1.614Zm0,0" transform="translate(-338.078 -100.704)"/><path class="b" d="M403.227,144h-2.421a.807.807,0,1,0,0,1.614h2.421a.807.807,0,1,0,0-1.614Zm0,0" transform="translate(-359.658 -129.477)"/><path class="b" d="M32.807,108.841h6.455a.807.807,0,0,0,.807-.807v-3.227a.807.807,0,0,0-.807-.807H32.807a.807.807,0,0,0-.807.807v3.227A.807.807,0,0,0,32.807,108.841Zm.807-3.227h4.841v1.614H33.614Zm0,0" transform="translate(-28.773 -93.511)"/><text class="c" transform="translate(14 24)"><tspan x="0" y="0">WEB</tspan></text></g></g></svg>