<svg xmlns="http://www.w3.org/2000/svg" width="69" height="69" viewBox="0 0 69 69"><defs><style>.a{fill:#ffc84d;}.b{fill:#fff;}</style></defs><g transform="translate(-834 -2244)"><rect class="a" width="69" height="69" rx="8" transform="translate(834 2244)"/><g transform="translate(819.999 2254)"><g transform="translate(36.299 5.072)"><g transform="translate(0)"><path class="b" d="M127.594,54.275a.938.938,0,1,0,.275.664A.947.947,0,0,0,127.594,54.275Z" transform="translate(-125.991 -54)"/></g></g><g transform="translate(47.477 37.731)"><g transform="translate(0)"><path class="b" d="M246.6,401.985a.939.939,0,1,0,.275.664A.946.946,0,0,0,246.6,401.985Z" transform="translate(-245.001 -401.71)"/></g></g><g transform="translate(38.717 9.526)"><path class="b" d="M171.962,107.407a3.137,3.137,0,1,0-3.145,5.213v2.43l-6.442,3.311V108.43a3.569,3.569,0,1,0-1.879,0v12.981l-4.7-4.652v-1.893a3.137,3.137,0,1,0-1.879-.008v2.292a.939.939,0,0,0,.278.667l6.3,6.238v2.724a.939.939,0,0,0,1.879,0v-6.3l7.811-4.014a.939.939,0,0,0,.51-.835v-3.012a3.134,3.134,0,0,0,1.266-5.205Zm-17.089,5.72a1.258,1.258,0,1,1,1.258-1.258A1.26,1.26,0,0,1,154.873,113.128Zm6.563-6.45a1.691,1.691,0,1,1,1.691-1.691A1.693,1.693,0,0,1,161.435,106.678Zm9.2,3.837a1.258,1.258,0,1,1-1.779-1.779h0a1.258,1.258,0,1,1,1.779,1.779Z" transform="translate(-151.736 -101.418)"/></g><g transform="translate(27.001)"><path class="b" d="M65.7,16.961a4.3,4.3,0,0,0-1.691.345V4.7a4.7,4.7,0,0,0-4.7-4.7H37.521a4.7,4.7,0,0,0-4.7,4.7V17.745l-1.506-.463a3.339,3.339,0,0,0-3.182,5.7,3.34,3.34,0,0,0,0,5.017,3.34,3.34,0,0,0,0,5.017,3.336,3.336,0,0,0,1.222,5.7l3.466,1.065v3.616a4.7,4.7,0,0,0,4.7,4.7H55.647a.939.939,0,0,0,.939-.939v-6.3a12.557,12.557,0,0,1,5.408-10.322l.858-.594a.939.939,0,0,0,.4-.772V21.282a2.442,2.442,0,0,1,4.884,0V33.671a14.812,14.812,0,0,1-1.714,6.9l-3.248,6.137a.939.939,0,1,0,1.66.879l3.248-6.137a16.7,16.7,0,0,0,1.933-7.782V21.282A4.326,4.326,0,0,0,65.7,16.961ZM29.471,19.3a1.446,1.446,0,0,1,.862-.287,1.474,1.474,0,0,1,.433.065l4.357,1.339a1.458,1.458,0,0,1-.857,2.788l-1.4-.429-2.961-.91a1.458,1.458,0,0,1-.438-2.567Zm0,5.017a1.447,1.447,0,0,1,.862-.287,1.473,1.473,0,0,1,.432.065l2.95.906h0l1.408.432a1.458,1.458,0,0,1-.857,2.788l-1.4-.429-2.961-.91a1.459,1.459,0,0,1-.438-2.567Zm6.683,7.528a1.458,1.458,0,0,1-1.887,1.394l-1.4-.429L29.91,31.9a1.459,1.459,0,0,1,.424-2.854,1.473,1.473,0,0,1,.432.065l2.95.906h0l1.408.432A1.451,1.451,0,0,1,36.154,31.844Zm-1.887,6.411L29.91,36.916a1.459,1.459,0,0,1,.424-2.854,1.473,1.473,0,0,1,.432.065l2.95.906h0l1.408.432a1.458,1.458,0,1,1-.857,2.788Zm20.44,7.956H37.521A2.821,2.821,0,0,1,34.7,43.394v-.376h20Zm6.67-24.929v7.389l-.453.314a14.436,14.436,0,0,0-6.217,11.867v.288h-20V40.2h0A3.341,3.341,0,0,0,36.9,34.35a3.34,3.34,0,0,0,0-5.017,3.34,3.34,0,0,0,0-5.017,3.336,3.336,0,0,0-1.222-5.7l-.973-.3V4.7a2.821,2.821,0,0,1,2.818-2.818H59.311A2.821,2.821,0,0,1,62.129,4.7v.376H40.572a.939.939,0,1,0,0,1.879H62.129v11.7a.949.949,0,0,0,.017.175A4.3,4.3,0,0,0,61.378,21.282Z" transform="translate(-27.001)"/></g></g></g></svg>