<svg xmlns="http://www.w3.org/2000/svg" width="69" height="69" viewBox="0 0 69 69"><defs><style>.a{fill:#775298;}.b{fill:#fff;}</style></defs><g transform="translate(-1131 -2244)"><rect class="a" width="69" height="69" rx="8" transform="translate(1131 2244)"/><g transform="translate(1141 2231.688)"><path class="b" d="M264.64,27.068a12.692,12.692,0,0,1,11.044,11.665.71.71,0,0,0,.709.66h3.228a6.591,6.591,0,0,1,6.3,5.017q.314.652.851.535a.711.711,0,0,0,.535-.851,8.009,8.009,0,0,0-7.687-6.122h-2.582a14.119,14.119,0,0,0-12.221-12.314.71.71,0,1,0-.178,1.41Z" transform="translate(-239.012 -0.308)"/><path class="b" d="M47.775,46.343a.711.711,0,0,0-.842.549,6.49,6.49,0,0,1-6.325,5.123H29.11V48.941h.772a2.134,2.134,0,0,0,2.131-2.131V45.153h1.572a.71.71,0,0,0,0-1.421H32.013V41.886h2.7a.71.71,0,0,0,0-1.421h-2.7V38.619h1.572a.71.71,0,0,0,0-1.421H32.013V35.541a2.134,2.134,0,0,0-2.131-2.131H28.225V32.035a.71.71,0,0,0-1.421,0V33.41H24.958v-2.7a.71.71,0,0,0-1.421,0v2.7H21.691V32.035a.71.71,0,0,0-1.421,0V33.41H18.613a2.134,2.134,0,0,0-2.131,2.131V37.2H14.776a.71.71,0,0,0,0,1.421h1.706v1.846h-2.7a.71.71,0,0,0,0,1.421h2.7v1.846H14.776a.71.71,0,1,0,0,1.421h1.706V46.81a2.134,2.134,0,0,0,2.131,2.131h.772v3.074H10.105a8.684,8.684,0,1,1,0-17.369,8.8,8.8,0,0,1,1.488.127.711.711,0,0,0,.773-.42A12.678,12.678,0,0,1,22.7,26.729a.71.71,0,1,0-.147-1.413,14.1,14.1,0,0,0-11.263,7.978,10.24,10.24,0,0,0-1.181-.069,10.105,10.105,0,1,0,0,20.21h3.816V60.8H11.454a2.6,2.6,0,1,0,0,1.421h3.177a.71.71,0,0,0,.71-.71v-8.08h4.042V63.746a2.6,2.6,0,1,0,1.421,0V53.436h6.884v10.31a2.6,2.6,0,1,0,1.421,0V53.436h4.042v8.08a.71.71,0,0,0,.71.71H37.04a2.6,2.6,0,1,0,0-1.421H34.573V53.436h6.035a7.917,7.917,0,0,0,7.715-6.251.71.71,0,0,0-.549-.842ZM8.949,62.7a1.184,1.184,0,1,1,1.184-1.184A1.185,1.185,0,0,1,8.949,62.7Zm12.33,3.552a1.184,1.184,0,1,1-1.184-1.184A1.185,1.185,0,0,1,21.279,66.251Zm8.3,0A1.184,1.184,0,1,1,28.4,65.067,1.185,1.185,0,0,1,29.584,66.251ZM20.805,52.015V48.941h1.817a.71.71,0,0,0,0-1.421H18.613a.711.711,0,0,1-.71-.71V35.541a.711.711,0,0,1,.71-.71H29.882a.711.711,0,0,1,.71.71V46.81a.711.711,0,0,1-.71.71H25.717a.71.71,0,1,0,0,1.421h1.972v3.074Zm18.74,8.317a1.184,1.184,0,1,1-1.184,1.184A1.185,1.185,0,0,1,39.546,60.332Z" transform="translate(0 0)"/><path class="b" d="M221.963,158.054V151.52a.71.71,0,0,0-.71-.71h-6.534a.71.71,0,0,0-.71.71v6.534a.71.71,0,0,0,.71.71h6.534A.71.71,0,0,0,221.963,158.054Zm-1.421-.71h-5.113v-5.113h5.113Z" transform="translate(-193.738 -113.612)"/></g></g></svg>