<svg width="66" height="103" viewBox="0 0 66 103" fill="none" xmlns="http://www.w3.org/2000/svg">
<path fill-rule="evenodd" clip-rule="evenodd" d="M29.0606 100.442L29.0606 28.6091L63.0577 28.6091C64.1891 28.6091 65.1072 27.6876 65.1072 26.5513V2.05845C65.1072 0.922154 64.1891 0 63.0577 0L2.72807 0C1.59673 0 0.678604 0.922154 0.678604 2.05845L0.678604 100.442C0.678604 101.578 1.59673 102.5 2.72807 102.5L27.0112 102.5C28.1425 102.5 29.0606 101.578 29.0606 100.442ZM61.0083 4.11616L61.0083 24.4928L27.8516 24.4928L7.66668 4.11616L61.0083 4.11616ZM4.77752 7.03901L4.77752 98.3839L24.9624 98.672L24.9624 91.8793H19.8801C18.7487 91.8793 17.8306 90.9578 17.8306 89.8215C17.8306 88.6852 18.7487 87.7631 19.8801 87.7631H24.9624V83.6468H19.8801C18.7487 83.6468 17.8306 82.7247 17.8306 81.5884C17.8306 80.4521 18.7487 79.5299 19.8801 79.5299H24.9624V75.4137H15.536C14.4046 75.4137 13.4865 74.4916 13.4865 73.3553C13.4865 72.2197 14.4046 71.2975 15.536 71.2975H24.9624V67.1806H19.8801C18.7487 67.1806 17.8306 66.2585 17.8306 65.1228C17.8306 63.9865 18.7487 63.0644 19.8801 63.0644H24.9624V58.9482H19.8801C18.7487 58.9482 17.8306 58.026 17.8306 56.8897C17.8306 55.7534 18.7487 54.8313 19.8801 54.8313H24.9624V50.7151H15.536C14.4046 50.7151 13.4865 49.7929 13.4865 48.6566C13.4865 47.5203 14.4046 46.5989 15.536 46.5989H24.9624V42.4819H19.8801C18.7487 42.4819 17.8306 41.5598 17.8306 40.4235C17.8306 39.2879 18.7487 38.3657 19.8801 38.3657H24.9624V34.2488H19.8801C18.7487 34.2488 17.8306 33.3274 17.8306 32.1911C17.8306 31.0548 18.7487 30.1326 19.8801 30.1326H24.9624V27.3131L4.77752 7.03901Z" fill="#16213E"/>
</svg>
