<svg width="59" height="48" viewBox="0 0 59 48" fill="none" xmlns="http://www.w3.org/2000/svg">
<path fill-rule="evenodd" clip-rule="evenodd" d="M0.42857 2.85185L0.428627 2.85726L0.42857 2.873V2.85185ZM0.428627 2.85726C0.433926 3.29818 0.577991 3.72696 0.8395 4.07949L15.3697 24.1365C15.3697 24.1365 15.5341 24.2613 15.6163 24.3445C15.6483 24.3769 15.6709 24.4093 15.6926 24.4405C15.7268 24.4894 15.7588 24.5353 15.8217 24.5736L44.2852 45.7751C46.3998 47.6789 49.4107 48.1739 52.0121 47.0443C53.3828 46.3554 54.5564 45.3259 55.4242 44.0482L57.1501 41.614C58.2743 40.1741 58.922 38.412 59 36.5786C58.9157 34.0281 57.584 31.6871 55.4444 30.3367L26.8987 9.21854C26.7817 9.15015 26.6563 9.09585 26.5289 9.05213C26.5289 9.05213 26.4056 9.05213 26.3436 8.92732L3.1414 0.895792C2.06672 0.527709 0.899399 1.11227 0.537918 2.2003C0.467144 2.41182 0.430279 2.63344 0.428627 2.85726ZM53.0192 33.7494C54.0653 34.346 54.7681 35.4114 54.9102 36.6201C54.8238 37.5713 54.4519 38.4717 53.8418 39.2002L52.1152 41.5722C51.659 42.2753 51.0384 42.8563 50.3064 43.2575L50.2923 43.2639C49.9084 43.437 48.7805 43.9457 46.7306 42.4255L44.8814 41.0518L48.0254 36.7244L51.1491 32.3758L53.0192 33.7494ZM45.9087 32.5638L47.8408 29.9005L26.1792 13.817L19.8906 22.4726L41.5522 38.5561L43.4835 35.9132L26.7552 23.4295C26.6828 23.3815 26.6152 23.3314 26.5498 23.275C25.6784 22.541 25.5607 21.228 26.2865 20.3459C27.0115 19.4638 28.3084 19.3432 29.1797 20.0793L45.9087 32.5638ZM22.4188 11.9436L17.0134 19.3927L13.664 14.7734L17.0545 10.0919L22.4188 11.9436ZM11.1153 11.2569L12.9854 8.67747L8.01171 6.97103L11.1153 11.2569Z" fill="#16213E"/>
</svg>
