<svg xmlns="http://www.w3.org/2000/svg" width="20.253" height="13.924" viewBox="0 0 20.253 13.924"><defs><style>.a{fill:#fff;}</style></defs><g transform="translate(0 -80)"><g transform="translate(0 80)"><g transform="translate(0 0)"><path class="a" d="M18.987,80H1.266A1.266,1.266,0,0,0,0,81.266v.72l10.126,4.289,10.126-4.29v-.719A1.266,1.266,0,0,0,18.987,80Z" transform="translate(0 -80)"/></g></g><g transform="translate(0 83.361)"><g transform="translate(0 0)"><path class="a" d="M10.373,169.144a.627.627,0,0,1-.494,0L0,164.96v9.3a1.266,1.266,0,0,0,1.266,1.266H18.987a1.266,1.266,0,0,0,1.266-1.266v-9.3Z" transform="translate(0 -164.96)"/></g></g></g></svg>