<svg width="145" height="40" viewBox="0 0 145 40" fill="none" xmlns="http://www.w3.org/2000/svg">
<path d="M64.5869 18.5851H58.5428L57.5468 21.4826H54.3549L59.8105 6.31567H63.3645L68.8201 21.4826H65.6056L64.5869 18.5851ZM61.5762 9.80181L59.3804 16.1402H63.772L61.5762 9.80181Z" fill="#023A63"/>
<path d="M75.1132 9.23596C77.0374 9.23596 78.373 10.1415 79.0974 11.1375V9.41706H82.1534V21.4374H79.0974V19.6717C78.373 20.713 77.0147 21.6185 75.1132 21.6185C72.0798 21.6185 69.635 19.1284 69.635 15.3707C69.635 11.6129 72.0572 9.23596 75.1132 9.23596ZM75.9055 11.9072C74.2756 11.9072 72.7363 13.1296 72.7363 15.3933C72.7363 17.6797 74.2756 18.97 75.9055 18.97C77.5807 18.97 79.0974 17.7023 79.0974 15.4386C79.0974 13.1748 77.5807 11.9072 75.9055 11.9072Z" fill="#023A63"/>
<path d="M89.3065 21.6639C86.2957 21.6639 84.1904 19.8982 84.0546 17.6797H87.1106C87.2238 18.5852 88.0614 19.287 89.2838 19.287C90.4836 19.287 91.1401 18.7437 91.1401 18.0419C91.1401 15.8914 84.3489 17.2496 84.3489 12.858C84.3489 10.8659 86.1372 9.25867 89.1027 9.25867C92.0229 9.25867 93.766 10.8433 93.9471 13.2202H91.0269C90.9363 12.2921 90.2119 11.6582 89.0122 11.6582C87.8803 11.6582 87.2917 12.111 87.2917 12.8127C87.2917 15.0085 93.9471 13.6277 94.0376 18.0419C94.0376 20.1019 92.2267 21.6639 89.3065 21.6639Z" fill="#023A63"/>
<path d="M96.0981 5.41022H99.1315V10.9563C99.9238 9.93767 101.259 9.28118 102.867 9.28118C105.583 9.28118 107.553 11.1148 107.553 14.4198V21.4827H104.519V14.8273C104.519 12.9031 103.455 11.8618 101.848 11.8618C100.195 11.8618 99.1315 12.9031 99.1315 14.8273V21.46H96.0981V5.41022Z" fill="#023A63"/>
<path d="M113.053 21.4601H109.997V9.43976H113.03V11.296C113.8 10.051 115.045 9.25867 116.72 9.25867V12.4505H115.928C114.117 12.4505 113.03 13.1523 113.03 15.4613V21.4601H113.053Z" fill="#023A63"/>
<path d="M123.059 9.23596C124.983 9.23596 126.319 10.1415 127.02 11.1375V9.41706H130.076V21.4374H127.02V19.6717C126.296 20.713 124.938 21.6185 123.036 21.6185C120.003 21.6185 117.558 19.1284 117.558 15.3707C117.558 11.6129 120.003 9.23596 123.059 9.23596ZM123.829 11.9072C122.199 11.9072 120.659 13.1296 120.659 15.3933C120.659 17.6797 122.199 18.97 123.829 18.97C125.504 18.97 127.02 17.7023 127.02 15.4386C127.02 13.1748 125.504 11.9072 123.829 11.9072Z" fill="#023A63"/>
<path d="M140.897 9.43951H144.134L136.687 27.1645H133.45L136.053 21.1656L131.231 9.43951H134.649L137.751 17.8379L140.897 9.43951Z" fill="#023A63"/>
<path d="M80.4167 31.7156H77.0212V34.8622H75.844V27.6862H77.0212V30.7648H80.4167V27.6862H81.5939V34.8622H80.4167V31.7156Z" fill="#023A63"/>
<path d="M89.5168 34.9292C87.4794 34.9292 85.8495 33.4126 85.8495 31.2394C85.8495 29.0888 87.5021 27.5721 89.5168 27.5721C91.5541 27.5721 93.184 29.0888 93.184 31.2394C93.184 33.4126 91.5541 34.9292 89.5168 34.9292ZM89.5168 33.9106C90.9429 33.9106 91.9842 32.8693 91.9842 31.262C91.9842 29.6548 90.9429 28.6361 89.5168 28.6361C88.0906 28.6361 87.0493 29.6548 87.0493 31.262C87.0493 32.8693 88.0906 33.9106 89.5168 33.9106Z" fill="#023A63"/>
<path d="M97.4401 27.6853H98.7078L101.221 33.322L103.733 27.6853H105.001V34.8613H103.824V29.949L101.628 34.8613H100.813L98.6173 29.949V34.8613H97.4401V27.6853Z" fill="#023A63"/>
<path d="M113.626 28.6361H110.841V30.7413H113.332V31.6921H110.841V33.8879H113.626V34.8387H109.664V27.64H113.626V28.6361Z" fill="#023A63"/>
<path d="M120.553 34.9292C119.127 34.9292 118.018 34.1369 118.018 32.8693H119.285C119.33 33.4578 119.761 33.9332 120.576 33.9332C121.413 33.9332 121.866 33.4805 121.866 32.8693C121.866 31.1262 118.04 32.2581 118.04 29.6095C118.04 28.3418 119.036 27.5721 120.508 27.5721C121.888 27.5721 122.862 28.2965 122.952 29.5189H121.639C121.594 29.0436 121.164 28.5908 120.44 28.5682C119.761 28.5455 119.24 28.8851 119.24 29.5642C119.24 31.1941 123.043 30.1754 123.043 32.8013C123.02 33.9106 122.16 34.9292 120.553 34.9292Z" fill="#023A63"/>
<path d="M43.6909 39.5248L37.0808 20.8038H30.5387L28.1391 22.5695L28.9767 25.1727H14.7153L15.6207 22.4336L13.357 20.7585H6.65639L0.0236819 39.5248C-0.0668671 39.7511 0.114231 40.0001 0.36324 40.0001H9.80297C9.96143 40.0001 10.0973 39.9096 10.1425 39.7511L12.361 32.6883H31.3536L33.5721 39.7511C33.6173 39.9096 33.7532 40.0001 33.9116 40.0001H43.3514C43.6004 40.0001 43.7815 39.7511 43.6909 39.5248Z" fill="#023A63"/>
<path d="M2.30987 18.6757H13.8775L17.2052 21.1658H26.7581L30.0179 18.7436H41.4044C41.6081 18.7436 41.7666 18.5852 41.7666 18.3814V15.9366C41.7666 15.7329 41.6081 15.5744 41.4044 15.5744H39.5934C39.5934 15.5744 37.6466 6.81381 30.8781 3.35031V11.6808H27.075V0H16.7298V11.7487H12.9267V3.32767C12.9267 3.32767 4.82261 8.55688 4.50569 15.4612H2.30987C2.10614 15.4612 1.94768 15.6197 1.94768 15.8234V18.3362C1.97031 18.5173 2.12878 18.6757 2.30987 18.6757Z" fill="white"/>
</svg>
