<svg width="16" height="16" viewBox="0 0 16 16" fill="none" xmlns="http://www.w3.org/2000/svg">
<path d="M3.51562 16H0.246094V5.48828H3.51562V16ZM1.89844 4.04688C1.38281 4.04688 0.9375 3.85938 0.5625 3.48438C0.1875 3.10937 0 2.66406 0 2.14844C0 1.63281 0.1875 1.1875 0.5625 0.8125C0.9375 0.4375 1.38281 0.25 1.89844 0.25C2.22656 0.25 2.53125 0.332031 2.8125 0.496094C3.11719 0.660156 3.35156 0.894531 3.51562 1.19922C3.70312 1.48047 3.79688 1.79688 3.79688 2.14844C3.79688 2.47656 3.70312 2.79297 3.51562 3.09766C3.35156 3.37891 3.11719 3.61328 2.8125 3.80078C2.53125 3.96484 2.22656 4.04688 1.89844 4.04688ZM15.75 16H12.4805V10.8672C12.4805 10.4688 12.4688 10.1523 12.4453 9.91797C12.4219 9.66016 12.3633 9.37891 12.2695 9.07422C12.1758 8.74609 12 8.5 11.7422 8.33594C11.5078 8.17188 11.1914 8.08984 10.793 8.08984C10.0195 8.08984 9.49219 8.33594 9.21094 8.82812C8.95312 9.32031 8.82422 9.97656 8.82422 10.7969V16H5.55469V5.48828H8.71875V6.92969H8.75391C8.98828 6.46094 9.375 6.0625 9.91406 5.73438C10.4531 5.38281 11.0977 5.20703 11.8477 5.20703C12.6445 5.20703 13.3008 5.33594 13.8164 5.59375C14.3555 5.82813 14.7539 6.19141 15.0117 6.68359C15.293 7.15234 15.4805 7.66797 15.5742 8.23047C15.6914 8.79297 15.75 9.46094 15.75 10.2344V16Z" fill="#FFA20D"/>
</svg>
