<svg width="37" height="37" viewBox="0 0 37 37" fill="none" xmlns="http://www.w3.org/2000/svg">
<circle cx="18.5" cy="18.5" r="17.5" stroke="#FFA20D" stroke-width="0.875"/>
<path d="M14.5759 24.375V15.1772H11.7151V24.375H14.5759ZM13.1301 13.9468C14.053 13.9468 14.7913 13.1777 14.7913 12.2549C14.7913 11.3628 14.053 10.6245 13.1301 10.6245C12.238 10.6245 11.4998 11.3628 11.4998 12.2549C11.4998 13.1777 12.238 13.9468 13.1301 13.9468ZM25.2502 24.375H25.281V19.3301C25.281 16.8691 24.7273 14.9619 21.8357 14.9619C20.4514 14.9619 19.5286 15.731 19.1287 16.4385H19.0979V15.1772H16.3601V24.375H19.2209V19.8223C19.2209 18.6226 19.4363 17.4844 20.9128 17.4844C22.3894 17.4844 22.4202 18.8379 22.4202 19.9146V24.375H25.2502Z" fill="#FFA20D"/>
</svg>
