<?xml version="1.0" standalone="no"?>
<!DOCTYPE svg PUBLIC "-//W3C//DTD SVG 20010904//EN"
 "http://www.w3.org/TR/2001/REC-SVG-20010904/DTD/svg10.dtd">
<svg version="1.0" xmlns="http://www.w3.org/2000/svg"
 width="512.000000pt" height="512.000000pt" viewBox="0 0 512.000000 512.000000"
 preserveAspectRatio="xMidYMid meet">

<g transform="translate(0.000000,512.000000) scale(0.100000,-0.100000)"
fill="#000000" stroke="none">
<path d="M2230 5109 c-120 -14 -287 -46 -310 -58 -8 -4 -49 -16 -90 -26 -41
-10 -93 -26 -114 -36 -22 -9 -44 -15 -51 -13 -6 3 -18 -2 -25 -11 -7 -8 -23
-15 -36 -15 -13 0 -24 -4 -24 -10 0 -5 -5 -10 -10 -10 -10 0 -144 -59 -180
-79 -8 -4 -46 -25 -85 -45 -38 -21 -77 -44 -86 -52 -8 -8 -21 -14 -27 -14 -7
0 -12 -3 -12 -8 0 -4 -17 -16 -37 -27 -20 -11 -41 -24 -47 -30 -6 -5 -29 -22
-52 -38 -22 -15 -49 -35 -60 -45 -11 -9 -42 -35 -69 -57 -27 -22 -75 -66 -105
-97 -30 -32 -60 -58 -67 -58 -6 0 -16 -6 -20 -14 -4 -7 -35 -44 -68 -80 -68
-76 -91 -104 -120 -141 -11 -14 -27 -34 -35 -45 -24 -29 -130 -189 -130 -195
0 -2 -19 -34 -41 -71 -35 -57 -103 -194 -139 -279 -44 -105 -104 -294 -129
-405 -56 -257 -56 -258 -56 -585 0 -282 2 -321 23 -434 57 -302 118 -482 260
-771 26 -52 57 -109 70 -128 12 -18 22 -36 22 -40 0 -4 12 -20 26 -37 14 -16
33 -43 41 -60 17 -33 59 -89 128 -170 80 -95 109 -126 175 -189 41 -39 92 -89
115 -112 22 -22 54 -49 70 -60 17 -10 38 -29 48 -41 10 -13 25 -23 32 -23 8 0
22 -8 32 -19 25 -26 169 -121 228 -151 28 -14 52 -27 55 -30 10 -11 60 -40 60
-36 0 3 39 -14 88 -38 48 -24 125 -57 172 -72 47 -16 87 -32 90 -35 3 -4 39
-15 80 -24 41 -10 84 -23 95 -29 11 -5 25 -10 30 -11 12 -1 118 -18 125 -20 3
-1 13 -5 22 -9 10 -5 24 -6 32 -3 7 3 19 0 25 -6 9 -9 115 -12 394 -12 336 0
392 2 462 19 44 10 87 20 95 23 8 3 29 6 45 7 17 0 40 6 51 13 12 7 23 10 26
8 2 -3 29 5 59 16 30 12 63 21 73 21 10 -1 28 6 40 14 11 7 28 14 38 14 10 0
18 4 18 8 0 5 7 9 15 9 14 0 40 10 155 61 30 13 65 28 76 32 22 9 318 185 342
204 8 6 25 21 38 34 14 12 29 22 34 22 5 0 21 12 37 28 15 15 46 40 68 56 22
17 49 39 61 50 12 12 49 47 83 80 34 32 73 73 86 90 13 17 44 53 69 80 25 27
46 53 46 57 0 5 7 17 15 27 35 39 101 129 114 155 8 15 18 27 23 27 4 0 8 6 8
14 0 8 7 22 16 30 8 9 38 60 66 113 27 54 56 109 64 123 66 120 153 370 190
545 49 231 57 315 57 575 0 266 -9 358 -62 595 -49 225 -184 552 -308 748 -24
37 -43 70 -43 73 0 8 -81 116 -102 137 -10 10 -18 21 -18 25 0 4 -18 28 -40
52 -22 24 -40 47 -40 51 0 10 -229 237 -269 267 -20 15 -45 36 -56 47 -22 21
-45 39 -143 110 -34 25 -67 45 -72 45 -6 0 -10 4 -10 8 0 4 -25 21 -55 37 -30
17 -55 33 -55 38 0 4 -9 7 -19 7 -11 0 -23 4 -26 10 -3 5 -30 21 -58 34 -29
13 -91 42 -139 65 -48 23 -91 41 -96 41 -5 0 -23 7 -38 15 -16 8 -36 15 -44
15 -8 0 -27 6 -42 14 -15 8 -52 20 -83 27 -31 7 -58 16 -61 21 -3 4 -19 8 -35
8 -16 0 -44 6 -62 13 -18 7 -50 14 -71 15 -21 2 -46 7 -56 12 -9 5 -25 9 -36
9 -10 0 -55 5 -99 10 -93 12 -550 12 -645 0z m571 -129 c859 -87 1611 -628
1967 -1416 141 -314 213 -647 214 -999 0 -244 -26 -434 -93 -673 -98 -347
-299 -709 -540 -970 -651 -706 -1651 -966 -2559 -666 -242 80 -546 244 -745
402 -93 74 -271 248 -349 342 -121 144 -264 368 -336 525 -435 943 -241 2041
490 2765 191 189 385 326 635 450 277 136 548 213 855 243 83 8 366 6 461 -3z"/>
<path d="M2330 4949 c-543 -55 -1061 -298 -1460 -686 -47 -46 -93 -83 -102
-83 -12 0 -18 -8 -18 -22 0 -13 -39 -72 -89 -136 -248 -318 -413 -708 -478
-1132 -23 -157 -24 -501 0 -655 43 -281 120 -524 240 -760 174 -342 401 -611
711 -842 529 -395 1213 -554 1856 -432 319 61 628 186 893 363 487 324 849
836 993 1402 102 404 98 845 -12 1226 -135 471 -388 873 -737 1174 -363 313
-753 491 -1242 570 -114 18 -431 26 -555 13z m-1175 -826 c-4 -10 -17 -49 -28
-88 -31 -102 -31 -298 1 -413 43 -159 119 -281 262 -422 169 -167 364 -288
646 -400 83 -33 156 -60 162 -60 19 0 224 -93 287 -130 209 -122 340 -248 428
-411 74 -136 100 -263 87 -427 -8 -102 -24 -182 -37 -182 -3 0 -2 11 1 24 3
14 2 28 -4 31 -6 3 -10 -4 -10 -16 0 -19 -4 -21 -31 -15 -31 6 -89 -16 -89
-34 0 -6 -3 -9 -7 -9 -21 3 -33 -2 -33 -16 0 -7 -6 -18 -14 -22 -7 -4 -24 -28
-36 -53 -12 -25 -29 -53 -37 -62 -22 -25 -8 -38 30 -27 17 5 57 14 87 18 30 5
83 16 117 23 l62 14 -5 -65 c-8 -95 -5 -91 -78 -91 l-65 0 -302 -352 c-166
-194 -305 -353 -309 -353 -4 0 -152 170 -330 377 -321 375 -323 378 -359 375
-20 -1 -39 -6 -43 -12 -4 -5 -8 3 -8 19 0 21 -4 27 -15 22 -10 -3 -18 1 -22
12 -4 9 -21 31 -38 47 -39 38 -106 127 -101 133 7 6 112 -26 166 -51 25 -11
54 -24 65 -27 22 -8 47 -18 120 -48 28 -11 65 -26 83 -34 17 -7 32 -16 32 -20
0 -5 4 -8 9 -8 14 0 31 58 31 105 0 62 -15 76 -90 82 -36 3 -70 9 -77 14 -6 6
-30 11 -52 12 -31 1 -41 5 -41 18 0 14 -8 17 -37 14 -21 -1 -51 4 -66 12 -16
8 -31 12 -34 9 -3 -3 -22 1 -42 9 -20 8 -45 16 -56 18 -11 3 -3 5 18 6 20 0
37 -3 37 -8 0 -9 76 -23 120 -22 14 0 36 -4 50 -9 14 -4 47 -11 73 -14 44 -5
48 -4 57 19 13 35 -7 185 -36 269 -31 91 -82 180 -153 268 -65 83 -192 205
-260 250 -284 191 -431 436 -431 716 0 85 14 88 25 5 9 -71 35 -142 72 -196
27 -40 133 -117 160 -117 15 0 18 31 4 45 -24 27 -83 238 -101 366 -16 108 -8
376 15 476 35 157 139 423 167 423 6 0 7 -7 3 -17z m513 -235 c5 -18 35 -140
68 -270 32 -131 61 -238 64 -238 3 0 35 120 72 268 l66 267 101 3 100 3 -9
-28 c-5 -15 -57 -190 -115 -387 -58 -198 -108 -363 -111 -368 -3 -4 -51 -8
-108 -8 l-102 0 -117 388 c-64 213 -117 391 -117 395 0 4 45 7 100 7 l99 0 9
-32z m712 -43 l0 -75 -85 0 -85 0 0 75 0 75 85 0 85 0 0 -75z m590 -320 l0
-395 -80 0 -80 0 0 40 0 41 -38 -40 c-90 -95 -218 -55 -273 86 -30 77 -33 242
-6 319 44 127 179 182 267 108 15 -13 31 -24 34 -24 3 0 6 59 6 130 l0 130 85
0 85 0 0 -395z m477 167 c81 -42 123 -118 131 -239 l5 -83 -173 0 -173 0 6
-37 c8 -52 49 -87 91 -79 16 4 40 16 52 27 20 19 29 20 100 12 42 -4 79 -13
81 -19 6 -19 -60 -97 -102 -121 -51 -28 -146 -38 -219 -23 -69 14 -116 52
-154 124 -25 47 -27 61 -27 166 0 110 1 117 31 170 33 59 91 107 145 121 53
13 162 3 206 -19z m540 13 c102 -30 163 -123 171 -261 6 -103 -14 -174 -64
-232 -55 -64 -104 -86 -194 -86 -112 0 -178 41 -231 144 -20 38 -23 60 -24
145 0 84 4 108 23 150 59 129 179 182 319 140z m-1607 -290 l0 -285 -85 0 -85
0 0 285 0 285 85 0 85 0 0 -285z m884 -1057 c57 -220 56 -218 64 -198 3 8 27
96 52 195 l47 180 92 3 91 3 0 -301 0 -300 -55 0 -55 0 0 222 c0 126 -4 218
-9 213 -4 -6 -21 -64 -36 -130 -16 -66 -38 -160 -51 -210 l-22 -90 -59 -3 -59
-3 -42 173 c-24 95 -45 190 -49 211 -15 92 -23 32 -23 -167 l0 -216 -60 0 -60
0 0 300 0 300 93 0 94 0 47 -182z m852 156 c52 -39 68 -70 72 -142 5 -88 -23
-145 -88 -179 -37 -20 -58 -23 -142 -23 l-98 0 0 -115 0 -115 -65 0 -65 0 0
301 0 300 179 -3 c163 -3 182 -5 207 -24z m434 7 c50 -26 80 -74 80 -128 0
-52 -12 -80 -48 -109 l-26 -21 32 -17 c109 -56 91 -236 -30 -295 -83 -40 -184
-24 -241 37 -27 28 -60 102 -51 111 2 3 27 8 55 11 49 6 50 6 64 -26 38 -91
155 -62 155 38 -1 66 -44 105 -102 93 l-30 -7 7 43 c9 56 11 59 40 59 26 0 65
42 65 70 0 30 -34 63 -65 63 -27 0 -67 -33 -77 -64 -3 -9 -17 -10 -53 -3 -42
8 -49 13 -47 29 8 45 37 87 76 110 52 31 143 34 196 6z m-1311 -713 c4 -13 20
-80 36 -151 16 -70 31 -124 35 -120 4 5 24 70 45 146 l39 138 100 -3 99 -3 -2
-210 c-1 -115 -4 -229 -7 -253 l-6 -43 -57 3 -56 3 0 173 c0 94 -3 172 -7 172
-3 0 -11 -21 -17 -47 -6 -27 -26 -102 -45 -168 l-33 -120 -59 0 c-67 0 -55
-24 -109 214 -17 79 -34 140 -37 135 -3 -5 -7 -83 -7 -174 -1 -90 -5 -168 -10
-173 -4 -4 -32 -7 -62 -5 l-54 3 4 245 c2 135 5 248 8 253 2 4 47 7 99 7 89 0
95 -1 103 -22z m795 -24 c56 -29 79 -75 73 -146 -9 -107 -62 -148 -190 -148
l-74 0 -7 -52 c-3 -29 -6 -72 -6 -96 l0 -43 -72 3 -73 3 -3 110 c-2 61 0 175
3 254 l7 143 152 -4 c127 -3 158 -7 190 -24z m489 -139 l-6 -155 31 0 32 0 0
-55 c0 -54 0 -55 -29 -55 -28 0 -30 -3 -33 -42 l-3 -43 -60 0 -60 0 3 43 c2
23 2 43 0 43 -2 1 -59 5 -128 8 l-125 6 1 28 c1 15 2 40 3 57 1 22 31 64 128
175 l126 145 63 0 62 0 -5 -155z"/>
<path d="M2869 1313 c-13 -16 -12 -17 4 -4 9 7 17 15 17 17 0 8 -8 3 -21 -13z"/>
<path d="M2674 3529 c-16 -18 -19 -36 -19 -110 0 -83 2 -90 27 -115 57 -57
112 0 113 118 0 52 -4 73 -21 95 -27 36 -73 42 -100 12z"/>
<path d="M3287 3579 c-21 -12 -47 -61 -47 -89 0 -18 6 -20 80 -20 l80 0 0 31
c0 20 -10 40 -29 60 -31 30 -54 35 -84 18z"/>
<path d="M3873 3560 c-35 -14 -56 -67 -56 -141 0 -114 59 -178 121 -132 70 52
61 245 -14 273 -14 6 -26 10 -27 9 -1 0 -12 -4 -24 -9z"/>
<path d="M3860 2350 l0 -90 48 0 c103 0 156 33 156 97 0 26 -7 42 -28 59 -23
21 -38 24 -102 24 l-74 0 0 -90z"/>
<path d="M3840 1645 l0 -55 40 0 c27 0 47 7 60 20 42 42 12 90 -58 90 l-42 0
0 -55z"/>
<path d="M4332 1571 c-35 -39 -62 -71 -60 -71 76 -8 120 -7 124 4 3 7 4 41 2
76 l-3 63 -63 -72z"/>
</g>
</svg>
