<?xml version="1.0" standalone="no"?>
<!DOCTYPE svg PUBLIC "-//W3C//DTD SVG 20010904//EN"
 "http://www.w3.org/TR/2001/REC-SVG-20010904/DTD/svg10.dtd">
<svg version="1.0" xmlns="http://www.w3.org/2000/svg"
 width="512.000000pt" height="512.000000pt" viewBox="0 0 512.000000 512.000000"
 preserveAspectRatio="xMidYMid meet">

<g transform="translate(0.000000,512.000000) scale(0.100000,-0.100000)"
fill="#000000" stroke="none">
<path d="M2988 5100 c-9 -10 -14 -21 -11 -24 6 -5 -11 -10 -28 -8 -4 1 -5 -8
-2 -18 3 -12 0 -20 -6 -20 -7 0 -9 5 -5 12 4 7 3 8 -5 4 -9 -6 -9 -11 1 -24
12 -14 10 -14 -10 -3 -18 9 -22 9 -20 -1 2 -7 -4 -12 -12 -10 -12 3 -13 1 -2
-10 11 -11 14 -10 22 2 7 11 10 11 10 2 0 -14 -60 -43 -73 -35 -4 2 -7 1 -6
-4 4 -23 -2 -35 -16 -29 -18 6 -34 -20 -28 -45 3 -11 0 -19 -6 -19 -7 0 -9 5
-5 12 4 7 3 8 -5 4 -9 -6 -9 -11 1 -24 12 -14 10 -14 -10 -3 -18 9 -22 9 -20
-1 2 -7 -2 -12 -8 -11 -7 1 -10 -7 -8 -20 2 -12 2 -16 -2 -9 -3 6 -10 12 -15
12 -6 0 -7 -4 -4 -10 6 -9 -8 -14 -28 -11 -5 1 -6 -2 -3 -7 2 -4 1 -14 -4 -22
-7 -11 -12 -11 -23 -2 -14 12 -17 5 -17 -45 0 -13 -5 -23 -11 -23 -5 0 -7 5
-3 12 4 7 3 8 -5 4 -9 -6 -9 -11 1 -24 12 -14 10 -14 -12 -2 -23 12 -24 12
-11 -4 11 -13 12 -19 2 -29 -10 -9 -11 -9 -6 4 4 10 0 16 -10 16 -11 0 -14 -6
-9 -21 3 -12 2 -16 -3 -10 -13 17 -42 24 -49 12 -4 -6 -3 -8 4 -4 6 3 13 2 17
-4 6 -9 -8 -15 -29 -11 -5 1 -3 -5 4 -14 7 -8 10 -18 6 -22 -3 -3 -6 0 -6 8 0
12 -2 12 -9 0 -8 -13 -12 -13 -28 -1 -10 8 -15 11 -11 6 4 -5 3 -18 -3 -30 -9
-20 -9 -20 4 -3 9 10 18 14 20 9 8 -12 -51 -45 -66 -36 -6 4 -9 4 -5 -1 4 -4
0 -14 -8 -22 -9 -9 -12 -23 -8 -36 6 -20 6 -20 -10 -4 -15 15 -36 15 -36 1 0
-3 4 -3 9 1 5 3 12 1 16 -5 6 -10 -8 -15 -30 -10 -5 1 -4 -4 3 -11 6 -7 12
-17 12 -23 0 -5 -9 1 -20 14 -11 13 -20 19 -20 14 0 -6 5 -15 12 -22 9 -9 9
-12 -1 -12 -7 0 -9 -5 -5 -12 4 -7 3 -8 -5 -4 -6 4 -9 11 -6 16 3 5 1 11 -4
14 -5 4 -8 -5 -6 -19 3 -27 -9 -42 -20 -25 -5 8 -11 7 -22 -1 -13 -11 -13 -15
4 -27 17 -13 16 -14 -6 -7 -20 6 -23 4 -17 -10 5 -15 4 -16 -9 -5 -13 11 -14
10 -9 -5 5 -12 4 -16 -4 -11 -6 3 -14 1 -18 -5 -4 -8 -3 -9 4 -5 18 11 14 -10
-4 -25 -13 -10 -17 -10 -25 2 -5 8 -9 9 -9 4 0 -6 5 -16 12 -23 9 -9 9 -12 -1
-12 -7 0 -9 -5 -5 -12 4 -7 3 -8 -5 -4 -6 4 -9 11 -6 16 3 5 0 12 -6 16 -7 4
-9 3 -5 -4 3 -6 2 -13 -4 -17 -5 -3 -10 -11 -10 -16 0 -6 5 -7 12 -3 7 5 8 3
4 -5 -6 -9 -13 -8 -29 6 -11 10 -17 13 -14 6 4 -6 2 -15 -4 -19 -9 -5 -6 -11
7 -22 18 -13 18 -14 -5 -7 -19 6 -23 4 -18 -9 4 -9 2 -15 -3 -13 -5 1 -21 -11
-35 -28 -21 -25 -26 -28 -35 -15 -5 8 -10 10 -10 5 0 -6 6 -17 13 -24 10 -11
8 -11 -11 -2 -18 9 -22 9 -20 -1 2 -7 -2 -12 -9 -11 -7 2 -10 -3 -7 -11 5 -14
-20 -46 -38 -46 -5 0 -7 -7 -4 -16 3 -8 2 -13 -3 -9 -5 3 -19 -7 -31 -22 -20
-27 -21 -27 -10 -3 10 22 10 23 -3 8 -8 -10 -19 -18 -26 -18 -6 0 -11 -4 -11
-9 0 -5 102 -10 230 -10 168 -2 243 -6 278 -16 84 -25 160 -98 193 -185 17
-46 19 -81 19 -400 l0 -349 893 -3 c889 -3 892 -3 938 -24 57 -26 120 -88 151
-146 l23 -43 0 -815 0 -815 -23 -43 c-30 -56 -90 -114 -150 -143 l-47 -24
-1800 0 c-1750 0 -1801 1 -1850 19 -65 25 -137 94 -166 159 -27 60 -26 34 -34
937 -2 300 -5 552 -5 561 -1 17 -46 24 -55 9 -2 -4 7 -6 20 -4 14 1 23 -2 19
-7 -3 -5 -10 -6 -16 -3 -8 5 -9 1 -4 -12 6 -15 5 -17 -5 -6 -7 6 -18 12 -23
12 -6 0 -5 -4 2 -9 11 -6 10 -11 -3 -25 -9 -9 -13 -16 -8 -16 10 0 -19 -20
-30 -20 -4 0 1 10 13 22 11 12 17 24 15 27 -7 6 -41 -41 -37 -51 1 -5 -5 -9
-13 -9 -28 -3 -33 -4 -41 -11 -3 -4 3 -5 15 -3 12 2 19 0 16 -6 -4 -5 -13 -9
-21 -9 -8 0 -12 -4 -9 -10 3 -5 1 -10 -4 -10 -6 0 -10 -6 -8 -12 1 -7 -4 -12
-12 -10 -9 2 -11 -3 -7 -13 3 -9 2 -13 -4 -10 -6 3 -13 -1 -16 -9 -3 -9 -10
-16 -16 -16 -5 0 -6 5 -3 10 3 6 2 10 -2 10 -10 0 -38 -42 -35 -52 1 -5 -5 -9
-13 -9 -26 -2 -30 -4 -55 -23 -14 -10 -17 -16 -8 -13 10 4 20 2 23 -3 4 -6 1
-10 -5 -10 -6 0 -8 -5 -4 -12 5 -8 1 -7 -10 2 -16 13 -20 12 -33 -5 -8 -11
-19 -19 -24 -17 -6 1 -8 -1 -5 -6 8 -13 -23 -52 -40 -52 -10 0 -14 -8 -12 -22
2 -16 -3 -24 -16 -26 -11 -3 -16 0 -11 7 3 6 12 8 18 4 7 -4 6 0 -2 10 -14 18
-26 23 -16 8 3 -5 1 -13 -5 -16 -8 -5 -7 -11 1 -21 8 -10 8 -14 0 -14 -8 0
-11 -304 -11 -1100 l0 -1100 2550 0 2550 0 0 2560 0 2560 -1053 0 c-1016 -1
-1054 -2 -1069 -20z m32 -5 c11 -13 10 -14 -4 -9 -10 4 -16 1 -16 -7 0 -7 -2
-10 -5 -7 -5 5 4 38 10 38 1 0 8 -7 15 -15z m-43 -50 c0 -8 -4 -12 -9 -9 -4 3
-8 9 -8 15 0 5 4 9 8 9 5 0 9 -7 9 -15z m-105 -92 c-6 -2 -10 -8 -8 -11 2 -4
-2 -13 -10 -20 -17 -15 -18 -8 -4 19 6 10 16 19 23 18 9 0 9 -2 -1 -6z m-48
-32 c3 -5 -1 -11 -9 -14 -9 -4 -12 -1 -8 9 6 16 10 17 17 5z m-63 -94 c-10 -9
-11 -8 -5 6 3 10 9 15 12 12 3 -3 0 -11 -7 -18z m-43 -34 c-9 -2 -20 -13 -23
-24 -4 -11 -9 -18 -12 -16 -10 10 18 47 35 46 16 -1 16 -2 0 -6z m-54 -32 c3
-5 -1 -11 -9 -14 -9 -4 -12 -1 -8 9 6 16 10 17 17 5z m-97 -127 c-3 -3 -12 -4
-19 -1 -8 3 -5 6 6 6 11 1 17 -2 13 -5z m-111 -96 c4 -7 3 -8 -5 -4 -6 4 -20
2 -29 -6 -15 -12 -16 -11 -3 5 16 20 27 22 37 5z m-166 -128 c0 -5 -5 -10 -11
-10 -5 0 -7 5 -4 10 3 6 8 10 11 10 2 0 4 -4 4 -10z m-150 -160 c0 -5 -5 -10
-11 -10 -5 0 -7 5 -4 10 3 6 8 10 11 10 2 0 4 -4 4 -10z m969 -135 c169 -35
328 -121 458 -248 l72 -69 91 78 c90 78 113 93 123 77 10 -17 39 -745 30 -754
-7 -7 -646 135 -700 156 -28 10 -9 37 82 115 l95 83 -22 31 c-43 62 -175 183
-268 245 -105 70 -275 155 -393 196 -43 16 -80 31 -83 36 -8 13 35 30 125 49
108 23 294 25 390 5z m-2829 -1679 c0 -2 -7 -7 -16 -10 -8 -3 -12 -2 -9 4 6
10 25 14 25 6z m-66 -48 c-3 -4 -12 -8 -20 -8 -8 0 -13 4 -10 8 3 5 12 9 20 9
8 0 13 -4 10 -9z m-58 -58 c0 -10 -2 -17 -5 -15 -2 3 -13 -3 -23 -12 -18 -16
-18 -16 -12 0 3 9 10 17 15 17 5 0 9 7 9 15 0 8 4 15 8 15 4 0 8 -9 8 -20z"/>
<path d="M2075 4220 c-3 -5 -1 -10 4 -10 6 0 11 5 11 10 0 6 -2 10 -4 10 -3 0
-8 -4 -11 -10z"/>
<path d="M2050 4180 c-6 -11 -8 -20 -6 -20 3 0 10 9 16 20 6 11 8 20 6 20 -3
0 -10 -9 -16 -20z"/>
<path d="M1964 4112 c3 -5 0 -12 -6 -15 -7 -2 -10 -7 -7 -11 3 -4 12 0 18 8 9
11 9 16 0 22 -7 4 -9 3 -5 -4z"/>
<path d="M1915 4060 c-3 -5 -1 -10 4 -10 6 0 11 5 11 10 0 6 -2 10 -4 10 -3 0
-8 -4 -11 -10z"/>
<path d="M1195 3132 c-47 -24 -98 -64 -156 -122 -70 -71 -93 -101 -132 -180
-58 -119 -77 -197 -77 -329 0 -126 18 -207 70 -316 93 -194 277 -342 485 -391
88 -20 239 -21 327 0 142 33 285 118 378 225 l52 60 29 -34 c33 -38 94 -64
154 -68 l40 -2 3 41 c3 41 2 42 -35 48 -61 11 -88 25 -106 56 -24 40 -23 72 7
167 14 46 28 123 32 172 8 106 -3 132 -66 157 -22 9 -40 20 -40 26 0 5 -4 7
-9 3 -6 -3 -14 2 -20 12 -7 13 -9 3 -9 -39 2 -170 -186 -246 -304 -121 -87 91
-49 233 74 278 21 8 25 13 18 25 -7 10 -10 11 -10 2 0 -10 -4 -10 -19 0 -11 7
-18 15 -15 19 2 5 -5 6 -17 4 -12 -2 -19 -2 -16 2 6 6 -72 60 -84 59 -4 -1
-16 7 -26 17 -11 9 -23 14 -28 10 -4 -5 -6 -3 -3 2 3 6 0 16 -8 23 -11 10 -14
10 -14 0 0 -7 -9 -2 -20 12 -11 14 -20 21 -20 15 0 -5 -5 -3 -11 5 -7 11 -8 2
-4 -31 18 -127 -79 -226 -202 -206 -50 9 -107 49 -126 90 -50 104 10 227 120
247 l38 7 -27 11 c-16 6 -28 16 -28 21 0 6 -7 7 -17 4 -10 -4 -14 -2 -10 4 3
5 -6 16 -21 24 -15 8 -30 18 -34 24 -5 6 -8 4 -8 -4 0 -12 -3 -12 -12 -3 -16
16 -13 17 -93 -26z m426 -561 c64 -64 16 -171 -76 -171 -18 0 -40 13 -62 35
-32 32 -35 39 -30 78 12 85 107 118 168 58z m-370 -36 c74 -48 95 -159 45
-235 -30 -45 -91 -80 -141 -80 -64 0 -142 54 -164 113 -59 156 119 295 260
202z m503 -293 c133 -91 79 -294 -83 -310 -102 -9 -183 66 -183 169 1 78 44
138 118 164 50 17 100 9 148 -23z"/>
<path d="M3644 2710 c-54 -22 -54 -20 -54 -483 l0 -429 -32 9 c-18 4 -85 8
-148 8 -131 -1 -178 -16 -250 -81 -53 -48 -73 -87 -72 -141 3 -146 179 -253
369 -223 114 18 195 67 236 144 22 40 22 51 27 491 5 450 5 450 26 453 14 2
39 -12 70 -39 72 -63 129 -96 187 -109 101 -24 129 -49 149 -130 16 -65 39
-77 62 -31 18 33 21 107 7 144 -21 55 -75 100 -176 148 -124 58 -188 106 -255
189 -69 86 -95 101 -146 80z"/>
<path d="M296 2512 c-2 -4 4 -8 14 -8 10 0 16 4 14 8 -3 4 -9 8 -14 8 -5 0
-11 -4 -14 -8z"/>
</g>
</svg>
