<?xml version="1.0" standalone="no"?>
<!DOCTYPE svg PUBLIC "-//W3C//DTD SVG 20010904//EN"
 "http://www.w3.org/TR/2001/REC-SVG-20010904/DTD/svg10.dtd">
<svg version="1.0" xmlns="http://www.w3.org/2000/svg"
 width="512.000000pt" height="512.000000pt" viewBox="0 0 512.000000 512.000000"
 preserveAspectRatio="xMidYMid meet">

<g transform="translate(0.000000,512.000000) scale(0.100000,-0.100000)"
fill="#000000" stroke="none">
<path d="M3588 4190 c-105 -18 -139 -73 -146 -232 l-5 -108 25 0 c25 0 25 1
31 106 10 177 26 189 257 189 231 0 247 -12 257 -189 5 -94 8 -106 24 -106 26
0 33 37 26 136 -10 138 -47 187 -154 204 -68 12 -248 11 -315 0z"/>
<path d="M3890 4076 c-27 -33 18 -72 48 -42 13 13 14 20 6 34 -15 23 -38 26
-54 8z"/>
<path d="M3697 4036 c-75 -27 -103 -74 -98 -163 1 -17 7 -23 24 -23 19 0 22 5
22 39 0 45 24 77 73 98 62 26 137 -27 137 -98 0 -34 3 -39 22 -39 21 0 23 5
23 46 0 26 -8 59 -17 76 -36 60 -119 88 -186 64z"/>
<path d="M1317 3736 c-72 -26 -97 -68 -97 -166 l0 -60 -50 0 -50 0 0 -55 0
-55 50 0 50 0 0 -130 0 -131 56 3 56 3 1 125 2 125 47 3 c51 3 52 4 61 80 l4
32 -59 0 -58 0 0 43 c0 62 20 85 78 89 l47 3 -4 45 c-1 25 -4 46 -4 46 -14 11
-100 10 -130 0z"/>
<path d="M2010 3120 l0 -620 -373 -2 -374 -3 650 -715 c357 -393 653 -715 657
-715 4 0 300 322 657 715 l650 715 -374 3 -373 2 0 620 0 620 -560 0 -560 0 0
-620z"/>
</g>
</svg>
