<svg width="23" height="12" viewBox="0 0 23 12" fill="none" xmlns="http://www.w3.org/2000/svg">
<path d="M15.9453 4.21875V1.88281C15.9453 1.34115 16.1992 0.96875 16.707 0.765625C17.2148 0.5625 17.6549 0.647135 18.0273 1.01953L22.3945 5.38672C22.5638 5.55599 22.6654 5.74219 22.6992 5.94531C22.7669 6.14844 22.7669 6.35156 22.6992 6.55469C22.6654 6.75781 22.5638 6.94401 22.3945 7.11328L18.0273 11.4805C17.6549 11.8529 17.2148 11.9375 16.707 11.7344C16.1992 11.5312 15.9453 11.1589 15.9453 10.6172V8.28125H0.609375C0.203125 8.28125 0 8.07812 0 7.67188V4.82812C0 4.42188 0.203125 4.21875 0.609375 4.21875H15.9453Z" fill="white"/>
</svg>
