<svg width="90" height="103" viewBox="0 0 90 103" fill="none" xmlns="http://www.w3.org/2000/svg">
<path fill-rule="evenodd" clip-rule="evenodd" d="M29.0606 100.442L29.0606 28.6091L63.0577 28.6091C64.1891 28.6091 65.1072 27.6876 65.1072 26.5513V2.05845C65.1072 0.922154 64.1891 0 63.0577 0L2.72807 0C1.59673 0 0.678604 0.922154 0.678604 2.05845L0.678604 100.442C0.678604 101.578 1.59673 102.5 2.72807 102.5L27.0112 102.5C28.1425 102.5 29.0606 101.578 29.0606 100.442ZM61.0083 4.11616L61.0083 24.4928L27.8516 24.4928L7.66668 4.11616L61.0083 4.11616ZM4.77752 7.03901L4.77752 98.3839L24.9624 98.672L24.9624 91.8793H19.8801C18.7487 91.8793 17.8306 90.9578 17.8306 89.8215C17.8306 88.6852 18.7487 87.7631 19.8801 87.7631H24.9624V83.6468H19.8801C18.7487 83.6468 17.8306 82.7247 17.8306 81.5884C17.8306 80.4521 18.7487 79.5299 19.8801 79.5299H24.9624V75.4137H15.536C14.4046 75.4137 13.4865 74.4916 13.4865 73.3553C13.4865 72.2197 14.4046 71.2975 15.536 71.2975H24.9624V67.1806H19.8801C18.7487 67.1806 17.8306 66.2585 17.8306 65.1228C17.8306 63.9865 18.7487 63.0644 19.8801 63.0644H24.9624V58.9482H19.8801C18.7487 58.9482 17.8306 58.026 17.8306 56.8897C17.8306 55.7534 18.7487 54.8313 19.8801 54.8313H24.9624V50.7151H15.536C14.4046 50.7151 13.4865 49.7929 13.4865 48.6566C13.4865 47.5203 14.4046 46.5989 15.536 46.5989H24.9624V42.4819H19.8801C18.7487 42.4819 17.8306 41.5598 17.8306 40.4235C17.8306 39.2879 18.7487 38.3657 19.8801 38.3657H24.9624V34.2488H19.8801C18.7487 34.2488 17.8306 33.3274 17.8306 32.1911C17.8306 31.0548 18.7487 30.1326 19.8801 30.1326H24.9624V27.3131L4.77752 7.03901Z" fill="#16213E"/>
<path fill-rule="evenodd" clip-rule="evenodd" d="M31.4286 51.8518L31.4286 51.8573L31.4286 51.873V51.8518ZM31.4286 51.8573C31.4339 52.2982 31.578 52.727 31.8395 53.0795L46.3697 73.1365C46.3697 73.1365 46.5341 73.2613 46.6163 73.3445C46.6483 73.3769 46.6709 73.4093 46.6926 73.4405C46.7268 73.4894 46.7588 73.5353 46.8217 73.5736L75.2852 94.7751C77.3998 96.6789 80.4107 97.1739 83.0121 96.0443C84.3828 95.3554 85.5564 94.3259 86.4242 93.0482L88.1501 90.614C89.2743 89.1741 89.922 87.412 90 85.5786C89.9157 83.0281 88.584 80.6871 86.4444 79.3367L57.8987 58.2185C57.7817 58.1501 57.6563 58.0959 57.5289 58.0521C57.5289 58.0521 57.4056 58.0521 57.3436 57.9273L34.1414 49.8958C33.0667 49.5277 31.8994 50.1123 31.5379 51.2003C31.4671 51.4118 31.4303 51.6334 31.4286 51.8573ZM84.0192 82.7494C85.0653 83.346 85.7681 84.4114 85.9102 85.6201C85.8238 86.5713 85.4519 87.4717 84.8418 88.2002L83.1152 90.5722C82.659 91.2753 82.0384 91.8563 81.3064 92.2575L81.2923 92.2639C80.9084 92.437 79.7805 92.9457 77.7306 91.4255L75.8814 90.0518L79.0254 85.7244L82.1491 81.3758L84.0192 82.7494ZM76.9087 81.5638L78.8408 78.9005L57.1792 62.817L50.8906 71.4726L72.5522 87.5561L74.4835 84.9132L57.7552 72.4295C57.6828 72.3815 57.6152 72.3314 57.5498 72.275C56.6784 71.541 56.5607 70.228 57.2865 69.3459C58.0115 68.4638 59.3084 68.3432 60.1797 69.0793L76.9087 81.5638ZM53.4188 60.9436L48.0134 68.3927L44.664 63.7734L48.0545 59.0919L53.4188 60.9436ZM42.1153 60.2569L43.9854 57.6775L39.0117 55.971L42.1153 60.2569Z" fill="#16213E"/>
</svg>
