<svg width="61" height="67" viewBox="0 0 61 67" fill="none" xmlns="http://www.w3.org/2000/svg">
<path fill-rule="evenodd" clip-rule="evenodd" d="M60.1253 31.7869L57.4018 30.6403V28.8172C57.4401 17.6274 50.2284 7.64369 39.4391 3.95106V1.38163C39.4391 0.618948 38.8068 0 38.0283 0H22.9296C22.1511 0 21.5189 0.618948 21.5189 1.38163V3.96464C10.7295 7.65726 3.51785 17.641 3.55611 28.8307V30.6679L0.860812 31.7869C0.338586 32.0027 0 32.5042 0 33.058V40.3108C0 41.073 0.632218 41.6919 1.41125 41.6919H3.24574V44.4552C3.24574 45.2174 3.87748 45.8364 4.65651 45.8364H9.72239C10.2035 47.5659 10.9103 49.2293 11.8247 50.7819L8.24084 54.291C7.69327 54.8294 7.69327 55.6997 8.24084 56.2386L14.2378 62.1097C14.7878 62.6458 15.6768 62.6458 16.2273 62.1097L19.8111 58.6011C21.3931 59.4963 23.0865 60.1869 24.8488 60.6593V65.6188C24.8488 66.3811 25.481 67 26.26 67H34.7261C35.5051 67 36.1374 66.3811 36.1374 65.6188V60.6593C37.9039 60.1883 39.6026 59.4977 41.1889 58.6011L44.7732 62.1097C45.3232 62.6458 46.2122 62.6458 46.7626 62.1097L52.7596 56.2386C53.3072 55.6997 53.3072 54.8294 52.7596 54.291L49.1753 50.7819C50.0897 49.2293 50.797 47.5659 51.2781 45.8364H56.3435C57.1225 45.8364 57.7547 45.2174 57.7547 44.4552V41.6919H59.5892C60.3683 41.6919 61 41.073 61 40.3108V33.058C60.9971 32.4999 60.6519 31.9985 60.1253 31.7869ZM24.3127 2.77684H36.617V25.8605H24.3409L24.3127 2.77684ZM50.248 43.0736H54.9466L54.9327 41.6919H42.0215C41.3778 46.8917 37.1914 50.9893 31.8802 51.6204C25.5049 52.3789 19.7097 47.9334 18.9364 41.6919H6.03955V43.0736H10.7381C11.4153 43.0581 12.0064 43.5169 12.1494 44.1645C12.6415 46.3209 13.5305 48.3711 14.7739 50.2154C15.1364 50.7613 15.0589 51.4809 14.5903 51.942L11.2178 55.2437L15.211 59.1536L18.5835 55.8519C19.055 55.3931 19.7901 55.3172 20.3477 55.6721C22.2424 56.8796 24.3466 57.7359 26.556 58.2003C27.2179 58.3399 27.6866 58.9186 27.6708 59.5815V64.2784H33.3149V59.6232C33.2996 58.9602 33.7677 58.3811 34.4296 58.2416C36.6395 57.7762 38.7432 56.9194 40.6385 55.7138C41.1961 55.3584 41.9311 55.4347 42.4022 55.8931L45.7746 59.1948L49.8104 55.2713L46.4379 51.9697C45.9697 51.5085 45.8918 50.7889 46.2548 50.243C47.4867 48.3875 48.3614 46.328 48.8367 44.1645C48.9792 43.5169 49.5708 43.0581 50.248 43.0736ZM21.8149 41.6919H39.1851C38.4089 46.3916 33.8878 49.5856 29.0878 48.8258C25.3428 48.233 22.4065 45.3583 21.801 41.6919H21.8149ZM2.80816 38.9291H58.1918V33.9972L55.4688 32.8506C54.9466 32.6353 54.608 32.1338 54.608 31.5799V28.8167C54.6477 19.1565 48.6407 10.4561 39.4673 6.89318V27.2422C39.4673 28.0044 38.835 28.6233 38.056 28.6233H22.9296C22.1506 28.6233 21.5189 28.0044 21.5189 27.2422V6.89318C12.3608 10.4575 6.36092 19.1411 6.39201 28.7891V31.5519C6.39201 32.1062 6.05342 32.6076 5.53119 32.823L2.80816 33.9696V38.9291Z" fill="#FFA20D"/>
</svg>
