<svg width="62" height="71" viewBox="0 0 62 71" fill="none" xmlns="http://www.w3.org/2000/svg">
<path fill-rule="evenodd" clip-rule="evenodd" d="M19.8829 69.0942L19.8829 20.0379L43.1004 20.0379C43.873 20.0379 44.5 19.4086 44.5 18.6326V1.90577C44.5 1.12976 43.873 0.5 43.1004 0.5L1.89964 0.5C1.12701 0.5 0.5 1.12976 0.5 1.90577L0.5 69.0942C0.5 69.8702 1.12701 70.5 1.89964 70.5L18.4832 70.5C19.2558 70.5 19.8829 69.8702 19.8829 69.0942ZM41.7007 3.31107V17.2268L19.0571 17.2268L5.27232 3.31107L41.7007 3.31107ZM3.29927 5.30707L3.29927 67.6889L17.0841 67.8857V63.2468H13.6132C12.8406 63.2468 12.2136 62.6175 12.2136 61.8415C12.2136 61.0655 12.8406 60.4357 13.6132 60.4357H17.0841V57.6246H13.6132C12.8406 57.6246 12.2136 56.9949 12.2136 56.2188C12.2136 55.4428 12.8406 54.8131 13.6132 54.8131H17.0841V52.002H10.6465C9.87389 52.002 9.24688 51.3722 9.24688 50.5962C9.24688 49.8207 9.87389 49.1909 10.6465 49.1909H17.0841L17.0841 46.3794H13.6132C12.8406 46.3794 12.2136 45.7496 12.2136 44.9741C12.2136 44.1981 12.8406 43.5683 13.6132 43.5683H17.0841V40.7572H13.6132C12.8406 40.7572 12.2136 40.1275 12.2136 39.3515C12.2136 38.5755 12.8406 37.9457 13.6132 37.9457H17.0841V35.1346H10.6465C9.87389 35.1346 9.24688 34.5049 9.24688 33.7288C9.24688 32.9528 9.87389 32.3236 10.6465 32.3236L17.0841 32.3236V29.512L13.6132 29.512C12.8406 29.512 12.2136 28.8822 12.2136 28.1062C12.2136 27.3307 12.8406 26.7009 13.6132 26.7009L17.0841 26.7009V23.8894L13.6132 23.8894C12.8406 23.8894 12.2136 23.2601 12.2136 22.4841C12.2136 21.7081 12.8406 21.0783 13.6132 21.0783L17.0841 21.0783V19.1528L3.29927 5.30707Z" fill="#FFA20D"/>
<path fill-rule="evenodd" clip-rule="evenodd" d="M21.5 35.9111L21.5 35.9148L21.5 35.9255V35.9111ZM21.5 35.9148C21.5037 36.2159 21.602 36.5087 21.7806 36.7495L31.7037 50.4469C31.7037 50.4469 31.816 50.5321 31.8721 50.589C31.8939 50.6111 31.9094 50.6332 31.9242 50.6545L31.9242 50.6545C31.9475 50.6879 31.9694 50.7193 32.0124 50.7455L51.4509 65.2245C52.895 66.5247 54.9512 66.8627 56.7278 66.0913C57.6639 65.6208 58.4653 64.9177 59.058 64.0451L60.2367 62.3828C61.0044 61.3995 61.4467 60.196 61.5 58.944C61.4424 57.2022 60.533 55.6034 59.0718 54.6812L39.5772 40.2591C39.4973 40.2123 39.4116 40.1753 39.3246 40.1454C39.3246 40.1454 39.2404 40.1454 39.1981 40.0602L23.3527 34.5752C22.6187 34.3238 21.8215 34.7231 21.5747 35.4661C21.5263 35.6106 21.5012 35.7619 21.5 35.9148ZM57.4156 57.012C58.13 57.4194 58.6099 58.147 58.707 58.9724C58.648 59.622 58.394 60.237 57.9773 60.7344L56.7982 62.3544C56.4866 62.8345 56.0628 63.2313 55.5629 63.5053L55.5533 63.5096C55.2911 63.6279 54.5208 63.9753 53.1209 62.9371L51.858 61.999L54.0051 59.0437L56.1384 56.0739L57.4156 57.012ZM52.5596 56.202L53.8791 54.3832L39.0858 43.3993L34.7912 49.3104L49.5844 60.2943L50.9034 58.4894L39.4792 49.9639C39.4297 49.9312 39.3836 49.897 39.3389 49.8584C38.7438 49.3571 38.6634 48.4605 39.1591 47.858C39.6542 47.2556 40.5399 47.1733 41.1349 47.676L52.5596 56.202ZM36.5178 42.1203L32.8262 47.2075L30.5388 44.0528L32.8543 40.8557L36.5178 42.1203ZM28.7984 41.6512L30.0755 39.8897L26.6789 38.7243L28.7984 41.6512Z" fill="#FFA20D"/>
</svg>
