<svg width="61" height="70" viewBox="0 0 61 70" fill="none" xmlns="http://www.w3.org/2000/svg">
<path fill-rule="evenodd" clip-rule="evenodd" d="M49.8622 31.6571L49.8622 68.0897C49.8622 68.8682 49.2276 69.5 48.4456 69.5H41.2338C40.4518 69.5 39.8172 68.8682 39.8172 68.0893L39.8172 33.4201C39.8172 32.6416 40.4518 32.0098 41.2338 32.0098H43.0052L43.0052 12.757C43.0052 11.9785 43.6398 11.3462 44.4218 11.3462L53.0358 11.3462C54.8777 11.3462 56.1671 9.61149 56.9179 8.20123L48.6721 8.20123C47.8902 8.20123 47.2555 7.56946 47.2555 6.7905V3.321L25.7197 3.321L8.63294 10.8387L30.8485 10.8387C31.6305 10.8387 32.2656 11.4705 32.2656 12.249V13.5469H33.9799C34.7619 13.5469 35.3965 14.1787 35.3965 14.9572C35.3965 15.7357 34.7619 16.3675 33.9799 16.3675H32.2656V19.781H33.9799C34.7619 19.781 35.3965 20.4133 35.3965 21.1918C35.3965 21.9703 34.7619 22.602 33.9799 22.602H32.2656V26.0156H33.9799C34.7619 26.0156 35.3965 26.6474 35.3965 27.4259C35.3965 28.2044 34.7619 28.8361 33.9799 28.8361H32.2656L32.2656 32.0098H33.4412C34.2232 32.0098 34.8583 32.6416 34.8583 33.4201L34.8583 68.0893C34.8583 68.8678 34.2232 69.4995 33.4412 69.4995H25.2944C24.5124 69.4995 23.8778 68.8678 23.8778 68.0893L23.8778 46.7208C19.6894 44.7065 15.2408 43.2833 10.6587 42.4895C3.4614 41.3187 1.56282 36.0719 1.56282 33.4626C1.56282 32.6837 2.19744 32.0519 2.97944 32.0519L29.4319 32.0519L29.4319 13.7161L1.9171 13.7161C1.23687 13.7314 0.643055 13.2631 0.5 12.6017V12.3054C0.504322 11.7482 0.837475 11.2449 1.35016 11.0222L24.8551 0.627119C25.0337 0.546356 25.2267 0.502867 25.4221 0.5L48.6721 0.5C49.4541 0.5 50.0892 1.13177 50.0888 1.91026V5.38024L59.0147 5.28179C59.1679 5.27606 59.3224 5.29422 59.4698 5.33675C60.2206 5.55658 60.6512 6.33937 60.4318 7.08679C60.3469 7.41128 58.3067 14.1395 53.0502 14.1395L45.8672 14.1395V22.3765L53.7731 22.3765C59.4401 22.6728 60.4885 29.7671 60.4885 30.0634C60.4971 30.1284 60.5 30.1948 60.5 30.2593C60.4942 31.0378 59.8539 31.6643 59.0719 31.6571L49.8622 31.6571ZM32.0246 37.6518V34.8308L4.66584 34.8165C5.19005 36.4246 6.69164 38.935 11.1263 39.6542C16.3007 40.5569 21.3062 42.2353 25.9746 44.6334C26.4297 44.8814 26.7129 45.3583 26.7115 45.8744L26.7115 66.6508H32.0246V65.4092H30.3104C29.5279 65.4092 28.8933 64.7775 28.8933 63.999C28.8933 63.2205 29.5279 62.5887 30.3104 62.5887H32.0246V59.1751H30.3104C29.5279 59.1751 28.8933 58.5434 28.8933 57.7649C28.8933 56.9864 29.5279 56.3541 30.3104 56.3541H32.0246V52.941H30.3104C29.5279 52.941 28.8933 52.3093 28.8933 51.5308C28.8933 50.7518 29.5279 50.12 30.3104 50.12H32.0246L32.0246 46.7069H30.3104C29.5279 46.7069 28.8933 46.0752 28.8933 45.2962C28.8933 44.5177 29.5279 43.8859 30.3104 43.8859H32.0246V40.4728H30.3104C29.5279 40.4728 28.8933 39.8406 28.8933 39.0621C28.8933 38.2836 29.5279 37.6518 30.3104 37.6518H32.0246ZM45.8384 32.0098V25.1267L53.6737 25.1267C55.7279 25.2395 56.7624 27.2706 57.2582 28.7798L48.4312 28.7798C47.6492 28.7798 47.0145 29.4115 47.0145 30.1905V31.9534L45.8384 32.0098ZM42.6509 34.8308L42.6509 66.679H47.0285L47.0285 34.8308H42.6509Z" fill="#FFA20D"/>
</svg>
