<svg xmlns="http://www.w3.org/2000/svg" xmlns:xlink="http://www.w3.org/1999/xlink" width="185" height="43" viewBox="0 0 185 43"><defs><style>.a{fill:url(#a);}.b{fill:url(#d);}.c{fill:url(#e);}</style><linearGradient id="a" x1="0.5" y1="-0.059" x2="0.5" y2="0.935" gradientUnits="objectBoundingBox"><stop offset="0" stop-color="#fa7d09"/><stop offset="1" stop-color="#ffdf00"/></linearGradient><linearGradient id="d" x1="0.077" y1="0.494" x2="1.058" y2="0.509" xlink:href="#a"/><linearGradient id="e" x1="0.042" y1="0.499" x2="1.077" y2="0.502" xlink:href="#a"/></defs><g transform="translate(-141 -30)"><g transform="translate(-1704.76 -6036)"><g transform="translate(1845.76 6066)"><path class="a" d="M43.709,29.591a2.232,2.232,0,0,1-.794,1.774q-3.4,3.336-6.786,6.686l-12.492,12.3a2.409,2.409,0,0,1-3.8.014Q10.358,41.033.881,31.7a2.232,2.232,0,0,1-.017-3.54q2.357-2.363,4.745-4.688a2.267,2.267,0,0,1,2.4-.631A2.206,2.206,0,0,1,8.831,26.6c-.53.546-1.086,1.07-1.627,1.606a2.171,2.171,0,0,0,0,3.389q6.4,6.317,12.8,12.616a2.215,2.215,0,0,0,3.433.009q6.547-6.434,13.081-12.879a2.134,2.134,0,0,0,.729-2.381,2.855,2.855,0,0,0-.589-.883c-.572-.622-1.17-1.222-1.77-1.819a2.321,2.321,0,0,1,.117-3,2.287,2.287,0,0,1,3.079-.1c.914.786,1.753,1.656,2.617,2.5q1.072,1.04,2.127,2.093A2.4,2.4,0,0,1,43.709,29.591ZM7.27,26.1a1.242,1.242,0,0,0,1.183-1.181,1.268,1.268,0,0,0-1.225-1.148,1.228,1.228,0,0,0-1.152,1.149A1.259,1.259,0,0,0,7.27,26.1Zm29.54-2.136a1.08,1.08,0,0,0-1.152,1.082,1.252,1.252,0,0,0,1.182,1.178,1.227,1.227,0,0,0,1.2-1.163A1.161,1.161,0,0,0,36.81,23.967Z" transform="translate(0 -8.287)"/><path class="a" d="M26.672,38.073a1.739,1.739,0,0,1-1.558-.538q-4.829-4.678-9.629-9.391a2.052,2.052,0,0,1,.113-3.082,2.171,2.171,0,0,1,3.074.026c2.027,1.925,4.02,3.876,6.013,5.83a2.55,2.55,0,0,0,2.061,1,2.435,2.435,0,0,0,1.572-.688q1.7-1.656,3.4-3.313a2.089,2.089,0,0,0,.038-3.221c-1.954-1.907-3.928-3.8-5.876-5.7a4.98,4.98,0,0,1-.721-.855,2.119,2.119,0,0,1,.541-2.915,2.475,2.475,0,0,1,2.914.2c2.6,2.584,5.248,5.131,7.876,7.691.537.524,1.081,1.043,1.609,1.574a2.17,2.17,0,0,1,.014,3.2q-4.85,4.75-9.712,9.477A1.966,1.966,0,0,1,26.672,38.073Zm1.647-20.985a1.057,1.057,0,0,0-1.126-1.07,1.151,1.151,0,0,0-1.14,1.085A1.209,1.209,0,0,0,27.2,18.271a1.159,1.159,0,0,0,1.11-1.181ZM18.277,26.68a1.106,1.106,0,0,0-1.071-1.074,1.107,1.107,0,1,0-.081,2.2,1.144,1.144,0,0,0,.823-.324,1.087,1.087,0,0,0,.329-.8Z" transform="translate(-4.97 -4.97)"/><path class="a" d="M36.495,14.027a1.92,1.92,0,0,1-1.593-.7q-3.086-3.12-6.21-6.2a2.129,2.129,0,0,0-2.664-.48,2.192,2.192,0,0,0-.549.421Q23.7,8.833,21.922,10.617a2.06,2.06,0,0,0,0,3.148c2.075,2.094,4.171,4.169,6.254,6.257A2.265,2.265,0,0,1,25.24,23.47a4.811,4.811,0,0,1-.47-.428q-4.505-4.5-9.005-9a2.323,2.323,0,0,1,0-3.708Q20.312,5.8,24.852,1.262c.21-.209.428-.411.654-.6a2.159,2.159,0,0,1,3.185.09C30.638,2.668,32.568,4.6,34.5,6.537c1.231,1.228,2.437,2.484,3.695,3.68a2.42,2.42,0,0,1-.178,3.4A2.081,2.081,0,0,1,36.495,14.027Zm-1.019-2.249a1.112,1.112,0,0,0,1.131,1.189,1.231,1.231,0,0,0,1.156-1.207A1.216,1.216,0,0,0,36.6,10.633a1.163,1.163,0,0,0-1.129,1.144Zm-8.887,8.727a1.146,1.146,0,0,0-1.138,1.19,1.113,1.113,0,0,0,1.17,1.081,1.233,1.233,0,0,0,1.173-1.183,1.253,1.253,0,0,0-1.212-1.088Z" transform="translate(-4.97 0)"/></g><g transform="translate(1896.14 6071.168)"><path class="b" d="M13.526,93.943a5.372,5.372,0,0,0,1.1-.123,5.5,5.5,0,0,0,1.154-.383,5.675,5.675,0,0,0,1.1-.666,4.242,4.242,0,0,0,.926-.987,5.1,5.1,0,0,0,.636-1.339,5.644,5.644,0,0,0,.241-1.709,5.72,5.72,0,0,0-.234-1.7,4.875,4.875,0,0,0-.636-1.333,4.623,4.623,0,0,0-.919-.993,5.567,5.567,0,0,0-1.092-.685,5.5,5.5,0,0,0-1.154-.4,5.666,5.666,0,0,0-1.1-.142h-7.4a1.876,1.876,0,0,1-1.425-.537,2.031,2.031,0,0,1-.512-1.462,2.081,2.081,0,0,1,.512-1.469,1.842,1.842,0,0,1,1.425-.555H17.067V76.247H6.146a5.719,5.719,0,0,0-1.678.278,4.92,4.92,0,0,0-2.956,2.517,6.07,6.07,0,0,0,0,4.881A4.882,4.882,0,0,0,2.8,85.539a5.035,5.035,0,0,0,1.672.895,5.719,5.719,0,0,0,1.678.278h7.38a2.127,2.127,0,0,1,.808.148,1.713,1.713,0,0,1,.617.42,1.877,1.877,0,0,1,.389.642,2.35,2.35,0,0,1,.136.814,2.036,2.036,0,0,1-.512,1.456,1.881,1.881,0,0,1-1.438.543H1.148v3.209Zm24.689,0a1.62,1.62,0,0,0,.629-.123,1.641,1.641,0,0,0,.518-.339,1.522,1.522,0,0,0,.346-.512,1.652,1.652,0,0,0,.123-.642h0V76.247H36.623V90.735h-5.64q-.148,0-.623-.043a6.33,6.33,0,0,1-1.1-.216,6.872,6.872,0,0,1-1.314-.531,4.616,4.616,0,0,1-1.271-.987,5.071,5.071,0,0,1-.956-1.567,6.178,6.178,0,0,1-.376-2.3h0V76.247H22.135V85.1a10.023,10.023,0,0,0,.37,2.82,8.255,8.255,0,0,0,1.018,2.246,7.687,7.687,0,0,0,1.512,1.7,8.707,8.707,0,0,0,1.845,1.179,9.222,9.222,0,0,0,2.03.685,9.987,9.987,0,0,0,2.073.222h7.232Zm22.554.247a1.62,1.62,0,0,0,.629-.123,1.569,1.569,0,0,0,.512-.339,1.653,1.653,0,0,0,.346-.512,1.583,1.583,0,0,0,.13-.642h0V76.247H59.177V88.711L47.454,76.481a1.525,1.525,0,0,0-.827-.45,1.628,1.628,0,0,0-.938.093,1.721,1.721,0,0,0-.71.6,1.536,1.536,0,0,0-.278.895h0V93.943H47.91V81.479L59.634,93.721a1.4,1.4,0,0,0,.537.358A1.727,1.727,0,0,0,60.769,94.19Zm9.7-.247V79.455H81.053a2.075,2.075,0,0,1,.216.012.5.5,0,0,1,.222.08.5.5,0,0,1,.173.21.99.99,0,0,1,.068.413h0v2.024a2.956,2.956,0,0,1-.2,1.117,2.347,2.347,0,0,1-.562.833,2.744,2.744,0,0,1-.864.549,3.712,3.712,0,0,1-1.1.253H71.748v3.209h2.308l6.689,5.788h4.961L79,88.155a6.408,6.408,0,0,0,1.265-.136,6.09,6.09,0,0,0,1.333-.438,6.432,6.432,0,0,0,1.265-.771,5.176,5.176,0,0,0,1.067-1.129,5.517,5.517,0,0,0,.734-1.524,6.538,6.538,0,0,0,.271-1.962h0V80.146a4.436,4.436,0,0,0-.2-1.271,3.785,3.785,0,0,0-.666-1.265,3.691,3.691,0,0,0-1.2-.975,3.865,3.865,0,0,0-1.814-.389H68.873a1.652,1.652,0,0,0-.642.123,1.522,1.522,0,0,0-.512.346,1.641,1.641,0,0,0-.339.518,1.62,1.62,0,0,0-.123.629h0v16.08Zm22.073,0v-17.7H89.329v17.7Zm16.742,0a5.372,5.372,0,0,0,1.1-.123,5.5,5.5,0,0,0,1.154-.383,5.675,5.675,0,0,0,1.1-.666,4.242,4.242,0,0,0,.926-.987,5.1,5.1,0,0,0,.636-1.339,5.644,5.644,0,0,0,.241-1.709,5.72,5.72,0,0,0-.234-1.7,4.875,4.875,0,0,0-.636-1.333,4.623,4.623,0,0,0-.919-.993,5.568,5.568,0,0,0-1.092-.685,5.5,5.5,0,0,0-1.154-.4,5.666,5.666,0,0,0-1.1-.142h-7.4a1.876,1.876,0,0,1-1.425-.537,2.031,2.031,0,0,1-.512-1.462,2.081,2.081,0,0,1,.512-1.469,1.842,1.842,0,0,1,1.425-.555h10.921V76.247H101.9a5.719,5.719,0,0,0-1.678.278,4.92,4.92,0,0,0-2.956,2.517,6.07,6.07,0,0,0,0,4.881,4.882,4.882,0,0,0,1.283,1.617,5.035,5.035,0,0,0,1.672.895,5.719,5.719,0,0,0,1.678.278h7.38a2.127,2.127,0,0,1,.808.148,1.713,1.713,0,0,1,.617.42,1.877,1.877,0,0,1,.389.642,2.35,2.35,0,0,1,.136.814,2.036,2.036,0,0,1-.512,1.456,1.881,1.881,0,0,1-1.438.543H96.9v3.209Zm24.961,0V90.735H122.689a1.321,1.321,0,0,1-.975-.333,1.3,1.3,0,0,1-.333-.963h0V79.455H134.24V76.247H119.789a1.652,1.652,0,0,0-.642.123,1.522,1.522,0,0,0-.512.346,1.641,1.641,0,0,0-.339.518,1.62,1.62,0,0,0-.123.629h0V89.439a4.483,4.483,0,0,0,.45,2.1,4.326,4.326,0,0,0,1.123,1.394,4.282,4.282,0,0,0,1.462.771,5.146,5.146,0,0,0,1.456.234H134.24ZM132.8,86.712V83.478H122.664v3.233Z" transform="translate(-0.335 -76)"/><path class="c" d="M4.875,122.5v-6.863H8.225v-1.52H0v1.52H3.355V122.5Zm13.182,0v-1.52H12.586a.626.626,0,0,1-.462-.158.617.617,0,0,1-.158-.456h0v-4.729h6.091v-1.52H11.212a.782.782,0,0,0-.3.058.721.721,0,0,0-.243.164.777.777,0,0,0-.161.246.767.767,0,0,0-.058.3h0v5.483a2.123,2.123,0,0,0,.213,1,2.049,2.049,0,0,0,.532.661,2.028,2.028,0,0,0,.693.365,2.437,2.437,0,0,0,.69.111h5.483Zm-.684-3.425v-1.532h-4.8v1.532ZM28.118,122.5v-1.52H22.634a.559.559,0,0,1-.614-.614h0v-4.1a.634.634,0,0,1,.158-.468.617.617,0,0,1,.456-.158h5.483v-1.52H22.634a2.293,2.293,0,0,0-.7.1,2.008,2.008,0,0,0-.547.266,1.9,1.9,0,0,0-.406.383,2.148,2.148,0,0,0-.275.453,2.328,2.328,0,0,0-.155.479,2.266,2.266,0,0,0-.05.453h0v4.115a2.321,2.321,0,0,0,.1.7,2,2,0,0,0,.266.549,1.844,1.844,0,0,0,.383.4,2.217,2.217,0,0,0,.453.272,2.329,2.329,0,0,0,.479.155,2.266,2.266,0,0,0,.453.05h5.483Zm4.11,0v-3.425h5.337V122.5h1.52v-8.382h-1.52v3.425H32.227v-3.425h-1.52V122.5Zm20.419,0a2.545,2.545,0,0,0,.523-.058,2.608,2.608,0,0,0,.547-.181,2.689,2.689,0,0,0,.52-.316,2.009,2.009,0,0,0,.438-.468,2.418,2.418,0,0,0,.3-.634,2.673,2.673,0,0,0,.114-.81,2.71,2.71,0,0,0-.111-.807,2.309,2.309,0,0,0-.3-.631,2.189,2.189,0,0,0-.435-.471,2.637,2.637,0,0,0-.517-.324,2.606,2.606,0,0,0-.547-.19,2.685,2.685,0,0,0-.52-.067H49.151a.889.889,0,0,1-.675-.254.962.962,0,0,1-.243-.693.986.986,0,0,1,.243-.7.873.873,0,0,1,.675-.263h5.173v-1.52H49.151a2.709,2.709,0,0,0-.795.132,2.33,2.33,0,0,0-1.4,1.192,2.875,2.875,0,0,0,0,2.312,2.313,2.313,0,0,0,.608.766,2.385,2.385,0,0,0,.792.424,2.709,2.709,0,0,0,.795.132h3.5a1.007,1.007,0,0,1,.383.07.811.811,0,0,1,.292.2.889.889,0,0,1,.184.3,1.113,1.113,0,0,1,.064.386.964.964,0,0,1-.243.69.891.891,0,0,1-.681.257H46.783v1.52Zm10.148.117a3.668,3.668,0,0,0,1.394-.26,3.279,3.279,0,0,0,1.838-1.838,3.686,3.686,0,0,0,.263-1.409h0v-1.6a3.692,3.692,0,0,0-.263-1.406,3.3,3.3,0,0,0-.731-1.111,3.369,3.369,0,0,0-1.108-.728A3.632,3.632,0,0,0,62.794,114H60.737a3.654,3.654,0,0,0-1.4.263A3.289,3.289,0,0,0,57.5,116.1a3.656,3.656,0,0,0-.266,1.406h0v1.6a3.65,3.65,0,0,0,.266,1.409,3.376,3.376,0,0,0,.734,1.111,3.3,3.3,0,0,0,1.111.728,3.69,3.69,0,0,0,1.4.26h2.058Zm-.012-1.52H60.737a2.2,2.2,0,0,1-.81-.143,1.833,1.833,0,0,1-.628-.4,1.782,1.782,0,0,1-.406-.625,2.218,2.218,0,0,1-.143-.815h0v-1.6a2.218,2.218,0,0,1,.143-.815,1.782,1.782,0,0,1,.406-.625,1.833,1.833,0,0,1,.628-.4,2.2,2.2,0,0,1,.81-.143h2.058a2.184,2.184,0,0,1,.8.143,1.763,1.763,0,0,1,1.029,1.029,2.218,2.218,0,0,1,.143.815h0v1.6a2.218,2.218,0,0,1-.143.815,1.782,1.782,0,0,1-.406.625,1.833,1.833,0,0,1-.628.4,2.2,2.2,0,0,1-.81.143Zm13.848,1.4v-1.52H70.452v-6.863h-1.52v7.617a.782.782,0,0,0,.058.3.732.732,0,0,0,.4.4.782.782,0,0,0,.3.058h6.933Zm9.26,0a.767.767,0,0,0,.3-.058.777.777,0,0,0,.246-.161.721.721,0,0,0,.164-.243.782.782,0,0,0,.058-.3h0v-7.617h-1.52v6.863H82.465q-.07,0-.3-.02a3,3,0,0,1-.52-.1,3.256,3.256,0,0,1-.623-.251,2.187,2.187,0,0,1-.6-.468,2.4,2.4,0,0,1-.453-.742,2.926,2.926,0,0,1-.178-1.087h0v-4.191h-1.52v4.191a4.748,4.748,0,0,0,.175,1.336,3.91,3.91,0,0,0,.482,1.064,3.641,3.641,0,0,0,.716.8,4.123,4.123,0,0,0,.874.558,4.368,4.368,0,0,0,.962.324,4.731,4.731,0,0,0,.982.105h3.425Zm7.9,0v-6.863h3.349v-1.52H88.913v1.52h3.355V122.5Zm7.138,0v-8.382h-1.52V122.5Zm8.219.117a3.668,3.668,0,0,0,1.394-.26,3.279,3.279,0,0,0,1.838-1.838,3.686,3.686,0,0,0,.263-1.409h0v-1.6a3.692,3.692,0,0,0-.263-1.406,3.3,3.3,0,0,0-.731-1.111,3.369,3.369,0,0,0-1.108-.728,3.632,3.632,0,0,0-1.394-.263h-2.058a3.654,3.654,0,0,0-1.4.263,3.289,3.289,0,0,0-1.844,1.838,3.656,3.656,0,0,0-.266,1.406h0v1.6a3.65,3.65,0,0,0,.266,1.409,3.376,3.376,0,0,0,.734,1.111,3.3,3.3,0,0,0,1.111.728,3.69,3.69,0,0,0,1.4.26h2.058Zm-.012-1.52h-2.046a2.2,2.2,0,0,1-.81-.143,1.833,1.833,0,0,1-.628-.4,1.782,1.782,0,0,1-.406-.625,2.218,2.218,0,0,1-.143-.815h0v-1.6a2.218,2.218,0,0,1,.143-.815,1.782,1.782,0,0,1,.406-.625,1.833,1.833,0,0,1,.628-.4,2.2,2.2,0,0,1,.81-.143h2.058a2.184,2.184,0,0,1,.8.143,1.763,1.763,0,0,1,1.029,1.029,2.218,2.218,0,0,1,.143.815h0v1.6a2.218,2.218,0,0,1-.143.815,1.782,1.782,0,0,1-.406.625,1.833,1.833,0,0,1-.628.4,2.2,2.2,0,0,1-.81.143Zm13.761,1.52a.767.767,0,0,0,.3-.058.743.743,0,0,0,.243-.161.783.783,0,0,0,.164-.243.75.75,0,0,0,.061-.3h0v-7.734h-1.52v5.9l-5.553-5.793a.722.722,0,0,0-.392-.213.771.771,0,0,0-.444.044.815.815,0,0,0-.336.284.728.728,0,0,0-.132.424h0V122.5h1.52v-5.9l5.553,5.8a.664.664,0,0,0,.254.17A.818.818,0,0,0,122.894,122.616Zm9.283-.117a2.545,2.545,0,0,0,.523-.058,2.608,2.608,0,0,0,.547-.181,2.69,2.69,0,0,0,.52-.316,2.009,2.009,0,0,0,.438-.468,2.418,2.418,0,0,0,.3-.634,2.673,2.673,0,0,0,.114-.81,2.71,2.71,0,0,0-.111-.807,2.309,2.309,0,0,0-.3-.631,2.19,2.19,0,0,0-.435-.471,2.637,2.637,0,0,0-.517-.324,2.605,2.605,0,0,0-.547-.19,2.685,2.685,0,0,0-.52-.067h-3.507a.889.889,0,0,1-.675-.254.962.962,0,0,1-.243-.693.986.986,0,0,1,.243-.7.873.873,0,0,1,.675-.263h5.173v-1.52h-5.173a2.709,2.709,0,0,0-.795.132,2.33,2.33,0,0,0-1.4,1.192,2.875,2.875,0,0,0,0,2.312,2.313,2.313,0,0,0,.608.766,2.385,2.385,0,0,0,.792.424,2.709,2.709,0,0,0,.795.132h3.5a1.007,1.007,0,0,1,.383.07.811.811,0,0,1,.292.2.89.89,0,0,1,.184.3,1.113,1.113,0,0,1,.064.386.964.964,0,0,1-.243.69.891.891,0,0,1-.681.257h-5.863v1.52Z" transform="translate(0 -89.439)"/></g></g></g></svg>