<svg width="37" height="37" viewBox="0 0 37 37" fill="none" xmlns="http://www.w3.org/2000/svg">
<circle cx="18.5" cy="18.5" r="17.5" stroke="#FFA20D" stroke-width="0.875"/>
<path d="M24.7444 15.2695C25.3596 14.8081 25.9133 14.2544 26.344 13.6084C25.7903 13.8545 25.1443 14.0391 24.4983 14.1006C25.175 13.7007 25.6672 13.0854 25.9133 12.3164C25.2981 12.6855 24.5906 12.9624 23.8831 13.1162C23.2678 12.4702 22.4373 12.1011 21.5144 12.1011C19.7302 12.1011 18.2844 13.5469 18.2844 15.3311C18.2844 15.5771 18.3152 15.8232 18.3767 16.0693C15.7004 15.9155 13.301 14.6235 11.7014 12.6855C11.4246 13.147 11.2708 13.7007 11.2708 14.3159C11.2708 15.4233 11.8245 16.4077 12.7166 16.9922C12.1936 16.9614 11.6707 16.8384 11.24 16.5923V16.623C11.24 18.1919 12.3474 19.4839 13.824 19.7915C13.5779 19.853 13.2703 19.9146 12.9934 19.9146C12.7781 19.9146 12.5935 19.8838 12.3782 19.853C12.7781 21.145 13.9778 22.0679 15.3928 22.0986C14.2854 22.96 12.9011 23.4829 11.3938 23.4829C11.1169 23.4829 10.8708 23.4521 10.6248 23.4214C12.0398 24.3442 13.7317 24.8672 15.5774 24.8672C21.5144 24.8672 24.7444 19.9761 24.7444 15.7002C24.7444 15.5464 24.7444 15.4233 24.7444 15.2695Z" fill="#FFA20D"/>
</svg>
